<svg width="319" height="323" viewBox="0 0 319 323" fill="none" xmlns="http://www.w3.org/2000/svg">
<path d="M87.5464 183.437V90.5864M87.5464 90.5864V21C87.5464 15.4772 92.0235 11 97.5464 11H220.433C225.956 11 230.433 15.4772 230.433 21V90.5864H136.536H298C303.523 90.5864 308 95.0636 308 100.586V221.393C308 226.916 303.523 231.393 298 231.393H230.433V132.42V302C230.433 307.523 225.956 312 220.433 312H97.5464C92.0235 312 87.5464 307.523 87.5464 302V231.393H183.485H21C15.4772 231.393 11 226.916 11 221.393V100.586C11 95.0636 15.4772 90.5864 21 90.5864H87.5464Z" stroke="#00A086" stroke-width="21"/>
</svg>
